<?xml version="1.0" standalone="no"?>
<!DOCTYPE svg PUBLIC "-//W3C//DTD SVG 20010904//EN"
 "http://www.w3.org/TR/2001/REC-SVG-20010904/DTD/svg10.dtd">
<svg version="1.0" xmlns="http://www.w3.org/2000/svg"
 width="225.000000pt" height="225.000000pt" viewBox="0 0 225.000000 225.000000"
 preserveAspectRatio="xMidYMid meet">
<metadata>
Created by potrace 1.11, written by Peter Selinger 2001-2013
</metadata>
<g transform="translate(0.000000,225.000000) scale(0.100000,-0.100000)"
fill="#000000" stroke="none">
<path d="M1093 2238 c-17 -21 -21 -42 -11 -60 5 -12 5 -18 -1 -18 -6 0 -18
-14 -27 -31 -13 -27 -15 -53 -10 -164 3 -72 3 -135 -1 -138 -3 -4 -21 2 -38
13 -68 42 -158 35 -185 -15 -10 -19 -10 -29 3 -54 12 -24 13 -31 3 -31 -7 0
-30 -27 -50 -59 -40 -66 -124 -148 -193 -188 l-46 -27 7 -170 c3 -94 8 -182
10 -196 3 -14 7 -49 10 -78 8 -73 15 -119 27 -177 5 -27 11 -61 14 -74 11 -57
70 -232 101 -299 74 -161 185 -293 324 -384 41 -27 80 -59 86 -70 l12 -21 6
20 c4 11 32 38 64 58 75 50 196 173 250 255 120 181 213 465 237 720 4 36 8
76 11 90 2 14 7 93 10 175 l7 151 -59 37 c-90 56 -158 127 -198 205 -9 17 -23
32 -31 32 -14 0 -14 3 -1 23 8 12 13 31 11 42 -2 11 -4 22 -4 25 -1 3 -15 14
-32 24 -38 22 -105 16 -155 -13 -18 -11 -35 -17 -38 -13 -4 3 -3 65 0 137 6
111 4 135 -10 163 -9 17 -21 32 -26 32 -6 0 -6 9 0 25 8 20 6 29 -10 45 -23
23 -53 26 -67 8z"/>
</g>
</svg>
